<?xml version="1.0" encoding="utf-8"?>
<!-- Generator: Adobe Illustrator 18.1.1, SVG Export Plug-In . SVG Version: 6.00 Build 0)  -->
<!DOCTYPE svg PUBLIC "-//W3C//DTD SVG 1.1//EN" "http://www.w3.org/Graphics/SVG/1.1/DTD/svg11.dtd">
<svg version="1.1" id="Capa_1" xmlns="http://www.w3.org/2000/svg" xmlns:xlink="http://www.w3.org/1999/xlink" x="0px" y="0px"
	 viewBox="0 0 1280 800" enable-background="new 0 0 1280 800" xml:space="preserve">
<g>
	<g>
		<path fill="#FBFBFB" d="M976.5,63.5C902.5-10.5,847,0.6,847,0.6L587.9,259.7L291.8,555.7L240,800l244.2-51.8l296.1-296.1
			l259.1-259C1039.4,193.1,1050.5,137.5,976.5,63.5z M469.7,718.8l-83.3,17.9c-8.1-15-17.7-30.1-35.4-47.8
			c-17.7-17.7-32.7-27.4-47.8-35.4l17.9-83.2l24.1-24.1c0,0,45.3,0.9,96.5,52.1c51.2,51.1,52.1,96.5,52.1,96.5L469.7,718.8z"/>
	</g>
</g>
</svg>
