<?xml version="1.0" encoding="utf-8"?>
<!-- Generator: Adobe Illustrator 18.1.1, SVG Export Plug-In . SVG Version: 6.00 Build 0)  -->
<!DOCTYPE svg PUBLIC "-//W3C//DTD SVG 1.1//EN" "http://www.w3.org/Graphics/SVG/1.1/DTD/svg11.dtd">
<svg version="1.1" id="Capa_1" xmlns="http://www.w3.org/2000/svg" xmlns:xlink="http://www.w3.org/1999/xlink" x="0px" y="0px"
	 viewBox="0 0 1280 800" enable-background="new 0 0 1280 800" xml:space="preserve">
<g>
	<g>
		<polygon fill="#FBFBFB" points="769.2,529.2 724.8,394.8 467.8,137.8 377.8,227.7 634.8,484.8 		"/>
		<path fill="#FBFBFB" d="M348.6,18.6c-24.9-24.9-65.1-24.9-90,0s-24.9,65.1,0,89.9l66.2,66.2l89.9-89.9L348.6,18.6z"/>
		<path fill="#FBFBFB" d="M990,150H635.5l50,50H990v550H440V445.6l-50-50V750c0,27.6,22.4,50,50,50h550c27.6,0,50-22.3,50-50V200
			C1040,172.4,1017.6,150,990,150z"/>
	</g>
</g>
</svg>
