<?xml version="1.0" encoding="utf-8"?>
<!-- Generator: Adobe Illustrator 18.1.1, SVG Export Plug-In . SVG Version: 6.00 Build 0)  -->
<!DOCTYPE svg PUBLIC "-//W3C//DTD SVG 1.1//EN" "http://www.w3.org/Graphics/SVG/1.1/DTD/svg11.dtd">
<svg version="1.1" id="Capa_1" xmlns="http://www.w3.org/2000/svg" xmlns:xlink="http://www.w3.org/1999/xlink" x="0px" y="0px"
	 viewBox="-623 385.4 31.6 31.6" enable-background="new -623 385.4 31.6 31.6" xml:space="preserve">
<g>
	<path fill="#FBFBFB" d="M-618.6,407.1l6.5,5.9l13.9-15.5l-6.5-5.9L-618.6,407.1z M-606.4,398.8l-7.8,8.7c-0.1,0.1-0.2,0.2-0.4,0.2
		c-0.1,0-0.3,0-0.4-0.1l-0.4-0.3c-0.2-0.2-0.2-0.6,0-0.8l7.8-8.7c0.1-0.1,0.2-0.2,0.4-0.2c0.1,0,0.3,0,0.4,0.1l0.4,0.3
		C-606.2,398.2-606.2,398.6-606.4,398.8z M-604.1,394.7l0.4,0.3c0.2,0.2,0.2,0.6,0,0.8l-0.7,0.8c-0.1,0.1-0.2,0.2-0.4,0.2
		c-0.1,0-0.3,0-0.4-0.1l-0.4-0.3c-0.1-0.1-0.2-0.2-0.2-0.4c0-0.1,0-0.3,0.1-0.4l0.7-0.8C-604.7,394.5-604.3,394.5-604.1,394.7z
		 M-602.5,389.1l6.5,5.9l-1.6,1.8l-6.5-5.9L-602.5,389.1z M-593.3,389.2l-3.7-3.3c-0.8-0.7-2-0.6-2.7,0.1l-2.2,2.4l6.5,5.9l2.2-2.4
		c0.3-0.4,0.5-0.9,0.5-1.4C-592.7,390-592.9,389.5-593.3,389.2z M-595.5,391.9l-4-3.6l1.1-1.3l4,3.6L-595.5,391.9z M-621.7,415.8
		c-0.1,0.3,0,0.7,0.3,1c0.3,0.2,0.7,0.3,1,0.2l7.5-3.1l-6.5-5.9L-621.7,415.8z M-615,413.5l-3,1.2l-1.7-1.6l0.9-3.1L-615,413.5z"/>
</g>
</svg>
