<?xml version="1.0" encoding="utf-8"?>
<!-- Generator: Adobe Illustrator 18.1.1, SVG Export Plug-In . SVG Version: 6.00 Build 0)  -->
<!DOCTYPE svg PUBLIC "-//W3C//DTD SVG 1.1//EN" "http://www.w3.org/Graphics/SVG/1.1/DTD/svg11.dtd">
<svg version="1.1" id="Capa_1" xmlns="http://www.w3.org/2000/svg" xmlns:xlink="http://www.w3.org/1999/xlink" x="0px" y="0px"
	 viewBox="-512 273.2 254.8 254.8" enable-background="new -512 273.2 254.8 254.8" xml:space="preserve">
<g>
	<g id="Layer_61_5_">
		<g>
			<path fill="#FBFBFB" d="M-425.5,450.3h-3.7h-27.1V464h111.5v-12.7l-18.4-0.9L-425.5,450.3L-425.5,450.3z M-409.2,458.7h-38.4
				v-2.5h38.4V458.7z"/>
			<path fill="#FBFBFB" d="M-512,505.7h49.7v-83.7H-512V505.7z M-486.5,502.1c-1.6,0-2.9-1.3-2.9-2.9c0-1.6,1.3-2.9,2.9-2.9
				c1.6,0,2.9,1.3,2.9,2.9C-483.6,500.8-484.9,502.1-486.5,502.1z M-486,425.5c0.7,0,1.2,0.5,1.2,1.2c0,0.7-0.5,1.2-1.2,1.2
				c-0.7,0-1.2-0.5-1.2-1.2C-487.2,426-486.7,425.5-486,425.5z M-493.2,429.5h14.3v1.2h-14.3C-493.2,430.7-493.2,429.5-493.2,429.5z
				 M-504,434.8l33.8,0v57.5c-12.9,0.1-27.4,0.1-33.8,0.1C-504,492.3-504,434.8-504,434.8z"/>
			<polygon fill="#FBFBFB" points="-422.8,307.1 -286.4,307.1 -286.4,352.7 -274.7,352.7 -274.7,295.4 -434.5,295.4 -434.5,355 
				-422.8,355 			"/>
			<polygon fill="#FBFBFB" points="-356.2,409.9 -334.6,409.9 -334.6,404.4 -341.3,404.4 -341.3,397.8 -334.6,397.8 -334.6,382.8 
				-356.2,382.8 			"/>
			<path fill="#FBFBFB" d="M-328.4,358v106.9h71.2V358H-328.4z M-291.3,459.5c-1.9,0-3.4-1.5-3.4-3.4c0-1.9,1.5-3.4,3.4-3.4
				c1.9,0,3.4,1.5,3.4,3.4C-287.9,458-289.4,459.5-291.3,459.5z M-267.5,447.2h-50.6v-78.9h50.7L-267.5,447.2z"/>
			<polygon fill="#FBFBFB" points="-481.8,371.5 -372.9,371.5 -372.9,436.8 -456.3,436.8 -456.3,446.4 -363.3,446.4 -363.3,361.9 
				-491.4,361.9 -491.4,416.4 -481.8,416.4 			"/>
		</g>
	</g>
</g>
</svg>
