<?xml version="1.0" encoding="utf-8"?>
<!-- Generator: Adobe Illustrator 18.1.1, SVG Export Plug-In . SVG Version: 6.00 Build 0)  -->
<!DOCTYPE svg PUBLIC "-//W3C//DTD SVG 1.1//EN" "http://www.w3.org/Graphics/SVG/1.1/DTD/svg11.dtd">
<svg version="1.1" id="Capa_1" xmlns="http://www.w3.org/2000/svg" xmlns:xlink="http://www.w3.org/1999/xlink" x="0px" y="0px"
	 viewBox="-615 376.2 48.8 48.8" enable-background="new -615 376.2 48.8 48.8" xml:space="preserve">
<g>
	<g id="Layer_20_51_">
		<g>
			<polygon fill="#FBFBFB" points="-599.6,409 -592.8,409 -592.8,410.6 -599.6,410.6 -599.6,411.8 -578.2,411.8 -578.2,410.6 
				-586.1,410.6 -586.1,409 -577.3,409 -577.3,405.4 -599.6,405.4 			"/>
			<polygon fill="#FBFBFB" points="-605.5,387.4 -573,387.4 -573,400.4 -570.3,400.4 -570.3,384.6 -608.3,384.6 -608.3,393.3 
				-605.5,393.3 			"/>
			<path fill="#FBFBFB" d="M-615,416h14.5v-21.8H-615V416z M-607.4,414.9c-0.4,0-0.7-0.3-0.7-0.7c0-0.4,0.3-0.7,0.7-0.7
				c0.4,0,0.7,0.3,0.7,0.7C-606.7,414.6-607,414.9-607.4,414.9z M-612.9,396.3h10.3l0,16.1h-10.3V396.3z"/>
			<path fill="#FBFBFB" d="M-576.3,401.2v15.3h10.1v-15.3H-576.3z M-571,401.8c0.1,0,0.2,0.1,0.2,0.2c0,0.1-0.1,0.2-0.2,0.2
				c-0.1,0-0.2-0.1-0.2-0.2S-571.1,401.8-571,401.8z M-572.3,402.6h2.6v0.2h-2.6V402.6z M-571.1,415.9c-0.3,0-0.5-0.2-0.5-0.5
				c0-0.3,0.2-0.5,0.5-0.5c0.3,0,0.5,0.2,0.5,0.5C-570.6,415.7-570.8,415.9-571.1,415.9z M-567.6,414.1c-2.4,0-6,0-7.2,0v-10.5
				l7.2,0V414.1z"/>
		</g>
	</g>
</g>
</svg>
