<?xml version="1.0" encoding="utf-8"?>
<!-- Generator: Adobe Illustrator 18.1.1, SVG Export Plug-In . SVG Version: 6.00 Build 0)  -->
<!DOCTYPE svg PUBLIC "-//W3C//DTD SVG 1.1//EN" "http://www.w3.org/Graphics/SVG/1.1/DTD/svg11.dtd">
<svg version="1.1" id="Capa_1" xmlns="http://www.w3.org/2000/svg" xmlns:xlink="http://www.w3.org/1999/xlink" x="0px" y="0px"
	 viewBox="-362 123 555 555" enable-background="new -362 123 555 555" xml:space="preserve">
<g>
	<g>
		<path fill="#FBFBFB" d="M168.5,271.7H42.8v162.2c0,23.6-19.2,42.8-42.8,42.8h-193.5v54.3c0,13.5,10.9,24.5,24.5,24.5H21.1
			l79.4,66.4c10.4,8.7,15.9,5.1,12.5-7.9l-15.5-58c0-0.1-0.1-0.3-0.1-0.4h71.2c13.5,0,24.5-10.9,24.5-24.5V296.1
			C193,282.6,182,271.7,168.5,271.7z"/>
		<path fill="#FBFBFB" d="M-337.5,458.3h37.4c0,0.1-0.1,0.3-0.1,0.4l-15.5,58c-2.2,8.2-0.8,12.7,3.1,12.7c2.3,0,5.5-1.5,9.3-4.7
			l79.4-66.4h30.4H0c13.5,0,24.5-10.9,24.5-24.5V271.7V199c0-13.5-10.9-24.5-24.5-24.5h-337.5c-13.5,0-24.5,10.9-24.5,24.5v234.8
			C-362,447.3-351.1,458.3-337.5,458.3z"/>
	</g>
</g>
</svg>
