<?xml version="1.0" encoding="utf-8"?>
<!-- Generator: Adobe Illustrator 18.1.1, SVG Export Plug-In . SVG Version: 6.00 Build 0)  -->
<!DOCTYPE svg PUBLIC "-//W3C//DTD SVG 1.1//EN" "http://www.w3.org/Graphics/SVG/1.1/DTD/svg11.dtd">
<svg version="1.1" id="Calque_1" xmlns="http://www.w3.org/2000/svg" xmlns:xlink="http://www.w3.org/1999/xlink" x="0px" y="0px"
	 viewBox="0 0 210 210" enable-background="new 0 0 210 210" xml:space="preserve">
<g id="Calque_3">
	<g>
		<g>
			<path fill="#E56D6E" d="M104.3,10.8c-51.5,0-93.4,41.9-93.4,93.4s41.9,93.2,93.2,93.2c51.5,0,93.2-41.9,93.2-93.2
				C197.5,52.8,155.6,10.8,104.3,10.8z"/>
			<path fill="#E56D6E" d="M104.3,0C46.6,0,0,46.6,0,104.3c0,57.4,46.6,104.3,104.3,104.3c57.4,0,104.3-46.8,104.3-104.3
				C208.5,46.6,161.7,0,104.3,0z M104.3,200.7c-53.2,0-96.6-43.2-96.6-96.4S51.1,7.7,104.3,7.7s96.4,43.4,96.4,96.6
				S157.5,200.7,104.3,200.7z"/>
		</g>
	</g>
	<g>
		<path fill="#FDFDFD" d="M60.4,38.9L18.9,142.8c1.1,2.1,2.3,4.3,3.4,6.4l1.3,2.8L64.9,50.8l43,101.9h7L67.7,38.9H60.4z"/>
		<polygon fill="#FDFDFD" points="154.9,152.8 110.6,50.2 93,89.8 89.2,80.4 107.5,39.1 110.4,39.1 113,39.1 162.4,152.8 		"/>
		<g>
			<polygon fill="#FDFDFD" points="139.8,39.1 133.4,39.1 133.4,76.6 139.8,91.5 			"/>
			<path fill="#FDFDFD" d="M189.4,146h-26.2l1.3,3.2l1.7,3.8l18.5,0.2C186.4,151.5,188.3,148.1,189.4,146z"/>
			<polygon fill="#FDFDFD" points="139.8,146.2 139.8,126.6 133.2,111.7 133.2,152.8 151.1,152.8 148.3,146.2 			"/>
		</g>
	</g>
</g>
</svg>
