<?xml version="1.0" encoding="utf-8"?>
<!-- Generator: Adobe Illustrator 18.1.1, SVG Export Plug-In . SVG Version: 6.00 Build 0)  -->
<!DOCTYPE svg PUBLIC "-//W3C//DTD SVG 1.1//EN" "http://www.w3.org/Graphics/SVG/1.1/DTD/svg11.dtd">
<svg version="1.1" id="Capa_1" xmlns="http://www.w3.org/2000/svg" xmlns:xlink="http://www.w3.org/1999/xlink" x="0px" y="0px"
	 viewBox="0 0 1280 800" enable-background="new 0 0 1280 800" xml:space="preserve">
<g id="Settings">
	<g>
		<path fill="#FBFBFB" d="M1037.5,355.6c-1.3-11.2-14.4-19.7-25.7-19.7c-36.7,0-69.2-21.5-82.8-54.8c-13.9-34.1-5-73.9,22.4-98.9
			c8.6-7.9,9.6-21,2.4-30.2c-18.8-23.8-40.1-45.3-63.4-64c-9.1-7.3-22.5-6.3-30.4,2.5c-23.8,26.4-66.7,36.2-99.8,22.4
			c-34.4-14.5-56.2-49.4-54-86.8c0.7-11.8-7.9-22-19.6-23.4c-29.9-3.5-60-3.6-90-0.2c-11.6,1.3-20.2,11.3-19.8,22.9
			c1.3,37.1-20.7,71.4-54.8,85.3c-32.7,13.4-75.2,3.6-99-22.5c-7.9-8.6-21-9.7-30.2-2.5c-24,18.8-45.8,40.3-64.7,64
			c-7.4,9.2-6.3,22.5,2.4,30.4c27.8,25.2,36.8,65.3,22.4,99.8c-13.8,32.9-47.9,54.1-87,54.1c-12.7-0.4-21.7,8.1-23.1,19.6
			c-3.5,30.1-3.6,60.7-0.2,91c1.3,11.3,14.8,19.7,26.2,19.7c34.8-0.9,68.3,20.7,82.3,54.8c14,34.1,5,73.8-22.4,98.9
			c-8.6,7.9-9.6,21-2.4,30.1c18.6,23.7,39.9,45.2,63.3,64c9.2,7.4,22.5,6.3,30.4-2.4c23.9-26.5,66.8-36.3,99.7-22.4
			c34.5,14.4,56.2,49.3,54.1,86.8c-0.7,11.8,7.9,22,19.6,23.4c15.3,1.8,30.7,2.7,46.1,2.7c14.6,0,29.3-0.8,43.9-2.4
			c11.6-1.3,20.2-11.3,19.8-22.9c-1.3-37.1,20.7-71.4,54.7-85.3c32.9-13.4,75.3-3.6,99.1,22.5c7.9,8.6,21,9.6,30.2,2.5
			c23.9-18.8,45.7-40.3,64.7-64c7.4-9.2,6.3-22.5-2.4-30.4c-27.8-25.2-36.9-65.3-22.4-99.8c13.6-32.4,46.5-54.2,81.8-54.2l4.9,0.1
			c11.5,0.9,22-7.9,23.4-19.6C1040.8,416.5,1040.9,385.9,1037.5,355.6z M640.6,534.3c-73.6,0-133.4-59.8-133.4-133.4
			c0-73.6,59.8-133.4,133.4-133.4c73.6,0,133.4,59.9,133.4,133.4C774.1,474.4,714.2,534.3,640.6,534.3z"/>
	</g>
</g>
</svg>
