<?xml version="1.0" encoding="utf-8"?>
<!-- Generator: Adobe Illustrator 18.1.1, SVG Export Plug-In . SVG Version: 6.00 Build 0)  -->
<!DOCTYPE svg PUBLIC "-//W3C//DTD SVG 1.1//EN" "http://www.w3.org/Graphics/SVG/1.1/DTD/svg11.dtd">
<svg version="1.1" id="Capa_1" xmlns="http://www.w3.org/2000/svg" xmlns:xlink="http://www.w3.org/1999/xlink" x="0px" y="0px"
	 viewBox="0 0 1280 800" enable-background="new 0 0 1280 800" xml:space="preserve">
<g>
	<g>
		<path fill="#FBFBFB" d="M563.2,173C384.7,173,240,284.3,240,421.6c0,67.3,34.9,128.6,91.5,173.3c-3.3,45.7-14.3,101.5-46.1,131.6
			c63.4,0,128.1-39.7,169-70.7c34,9.3,70.6,14.5,108.9,14.5c178.5,0,323.2-111.2,323.2-248.6C886.5,284.3,741.8,173,563.2,173z"/>
		<path fill="#FBFBFB" d="M992.9,445.8c27.2-36.4,42.8-78.6,42.8-123.7c0-137.4-144.7-248.6-323.2-248.6
			c-78.6,0-150.6,21.6-206.6,57.4c26.4-5,53.9-7.7,82.3-7.7c192.3,0,348.1,122.5,348.1,273.5c0,59.5-24.1,114.7-65.2,159.5
			c40.8,31,105.7,70.8,169,70.8C994.9,584.3,991.7,489.5,992.9,445.8z"/>
	</g>
</g>
</svg>
