<?xml version="1.0" encoding="utf-8"?>
<!-- Generator: Adobe Illustrator 18.1.1, SVG Export Plug-In . SVG Version: 6.00 Build 0)  -->
<svg version="1.1" xmlns="http://www.w3.org/2000/svg" xmlns:xlink="http://www.w3.org/1999/xlink" x="0px" y="0px"
	 viewBox="0 0 98 98" enable-background="new 0 0 98 98" xml:space="preserve">
<g id="Calque_3">
	<g>
		<g>
			<defs>
				<rect id="SVGID_1_" x="-72.1" y="-30.4" width="242.2" height="153.5"/>
			</defs>
			<clipPath id="SVGID_2_">
				<use xlink:href="#SVGID_1_"  overflow="visible"/>
			</clipPath>
		</g>
		<g>
			<path fill="#6B639C" d="M49,5.1C24.8,5.1,5.1,24.8,5.1,49c0,24.2,19.7,43.8,43.8,43.8c24.2,0,43.8-19.7,43.8-43.8
				C92.8,24.8,73.1,5.1,49,5.1z"/>
			<path fill="#6B639C" d="M49,0C21.9,0,0,21.9,0,49c0,27,21.9,49,49,49C76,98,98,76,98,49C98,21.9,76,0,49,0z M49,94.3
				C24,94.3,3.6,74,3.6,49S24,3.6,49,3.6C74,3.6,94.3,24,94.3,49S74,94.3,49,94.3z"/>
		</g>
	</g>
	<g>
		<path fill="#FDFDFD" d="M28.4,18.3L8.9,67.1c0.5,1,1.1,2,1.6,3l0.6,1.3l19.4-47.5l20.2,47.9H54L31.8,18.3H28.4z"/>
		<polygon fill="#FDFDFD" points="72.8,71.8 52,23.6 43.7,42.2 41.9,37.8 50.5,18.4 51.9,18.4 53.1,18.4 76.3,71.8 		"/>
		<g>
			<polygon fill="#FDFDFD" points="65.7,18.4 62.7,18.4 62.7,36 65.7,43 			"/>
			<path fill="#FDFDFD" d="M89,68.6H76.7l0.6,1.5l0.8,1.8l8.7,0.1C87.6,71.2,88.5,69.6,89,68.6z"/>
			<polygon fill="#FDFDFD" points="65.7,68.7 65.7,59.5 62.6,52.5 62.6,71.8 71,71.8 69.7,68.7 			"/>
		</g>
	</g>
</g>
<g id="Calque_2">
	<g id="Calque_1">
	</g>
	<g id="Calque_5">
	</g>
</g>
<g id="Calque_4">
</g>
</svg>
